<?xml version="1.0" encoding="UTF-8" standalone="no"?>
<!DOCTYPE svg PUBLIC "-//W3C//DTD SVG 1.1//EN"
 "http://www.w3.org/Graphics/SVG/1.1/DTD/svg11.dtd">
<!-- Generated by graphviz version 2.40.1 (20161225.0304)
 -->
<!-- Title: dependencies Pages: 1 -->
<svg width="4161pt" height="366pt"
 viewBox="0.00 0.00 4161.00 366.00" xmlns="http://www.w3.org/2000/svg" xmlns:xlink="http://www.w3.org/1999/xlink">
<g id="graph0" class="graph" transform="scale(1 1) rotate(0) translate(4 362)">
<title>dependencies</title>
<polygon fill="#ffffff" stroke="transparent" points="-4,4 -4,-362 4157,-362 4157,4 -4,4"/>
<text text-anchor="start" x="2055.5091" y="-42.4" font-family="sans-serif" font-weight="bold" font-size="14.00" fill="#000000">Legend</text>
<polygon fill="#ffffb3" stroke="transparent" points="1842.5,-10 1842.5,-30 1862.5,-30 1862.5,-10 1842.5,-10"/>
<text text-anchor="start" x="1866.129" y="-15.4" font-family="sans-serif" font-size="14.00" fill="#000000"> &#160;Declarations</text>
<polygon fill="#8dd3c7" stroke="transparent" points="1955.5,-10 1955.5,-30 1975.5,-30 1975.5,-10 1955.5,-10"/>
<text text-anchor="start" x="1979.2251" y="-15.4" font-family="sans-serif" font-size="14.00" fill="#000000"> &#160;Module</text>
<polygon fill="#80b1d3" stroke="transparent" points="2041.5,-10 2041.5,-30 2061.5,-30 2061.5,-10 2041.5,-10"/>
<text text-anchor="start" x="2065.2812" y="-15.4" font-family="sans-serif" font-size="14.00" fill="#000000"> &#160;Bootstrap</text>
<polygon fill="#fdb462" stroke="transparent" points="2138.5,-10 2138.5,-30 2158.5,-30 2158.5,-10 2138.5,-10"/>
<text text-anchor="start" x="2162.1732" y="-15.4" font-family="sans-serif" font-size="14.00" fill="#000000"> &#160;Providers</text>
<polygon fill="#fb8072" stroke="transparent" points="2234.5,-10 2234.5,-30 2254.5,-30 2254.5,-10 2234.5,-10"/>
<text text-anchor="start" x="2258.2258" y="-15.4" font-family="sans-serif" font-size="14.00" fill="#000000"> &#160;Exports</text>
<g id="clust1" class="cluster">
<title>cluster_AppModule</title>
<polygon fill="none" stroke="#000000" stroke-dasharray="1,5" points="114,-146 114,-350 509,-350 509,-146 114,-146"/>
</g>
<g id="clust2" class="cluster">
<title>cluster_AppModule_declarations</title>
<polygon fill="none" stroke="#000000" points="379,-154 379,-206 501,-206 501,-154 379,-154"/>
</g>
<g id="clust4" class="cluster">
<title>cluster_AppModule_imports</title>
<polygon fill="none" stroke="#000000" points="122,-154 122,-206 371,-206 371,-154 122,-154"/>
</g>
<g id="clust6" class="cluster">
<title>cluster_AppModule_bootstrap</title>
<polygon fill="none" stroke="#000000" points="237,-290 237,-342 361,-342 361,-290 237,-290"/>
</g>
<g id="clust14" class="cluster">
<title>cluster_CarrelloModule</title>
<polygon fill="none" stroke="#000000" stroke-dasharray="1,5" points="548,-70 548,-206 998,-206 998,-70 548,-70"/>
</g>
<g id="clust15" class="cluster">
<title>cluster_CarrelloModule_declarations</title>
<polygon fill="none" stroke="#000000" points="556,-78 556,-130 700,-130 700,-78 556,-78"/>
</g>
<g id="clust17" class="cluster">
<title>cluster_CarrelloModule_imports</title>
<polygon fill="none" stroke="#000000" points="708,-78 708,-130 990,-130 990,-78 708,-78"/>
</g>
<g id="clust27" class="cluster">
<title>cluster_CoreModule</title>
<polygon fill="none" stroke="#000000" stroke-dasharray="1,5" points="8,-70 8,-138 540,-138 540,-70 8,-70"/>
</g>
<g id="clust32" class="cluster">
<title>cluster_CoreModule_providers</title>
<polygon fill="none" stroke="#000000" points="16,-78 16,-130 532,-130 532,-78 16,-78"/>
</g>
<g id="clust33" class="cluster">
<title>cluster_CustomizeModule</title>
<polygon fill="none" stroke="#000000" stroke-dasharray="1,5" points="2385,-70 2385,-206 2747,-206 2747,-70 2385,-70"/>
</g>
<g id="clust34" class="cluster">
<title>cluster_CustomizeModule_declarations</title>
<polygon fill="none" stroke="#000000" points="2581,-78 2581,-130 2739,-130 2739,-78 2581,-78"/>
</g>
<g id="clust36" class="cluster">
<title>cluster_CustomizeModule_imports</title>
<polygon fill="none" stroke="#000000" points="2393,-78 2393,-130 2573,-130 2573,-78 2393,-78"/>
</g>
<g id="clust46" class="cluster">
<title>cluster_HomeModule</title>
<polygon fill="none" stroke="#000000" stroke-dasharray="1,5" points="2755,-70 2755,-206 3065,-206 3065,-70 2755,-70"/>
</g>
<g id="clust47" class="cluster">
<title>cluster_HomeModule_declarations</title>
<polygon fill="none" stroke="#000000" points="2925,-78 2925,-130 3057,-130 3057,-78 2925,-78"/>
</g>
<g id="clust49" class="cluster">
<title>cluster_HomeModule_imports</title>
<polygon fill="none" stroke="#000000" points="2763,-78 2763,-130 2917,-130 2917,-78 2763,-78"/>
</g>
<g id="clust59" class="cluster">
<title>cluster_LoginModule</title>
<polygon fill="none" stroke="#000000" stroke-dasharray="1,5" points="3073,-70 3073,-206 3531,-206 3531,-70 3073,-70"/>
</g>
<g id="clust60" class="cluster">
<title>cluster_LoginModule_declarations</title>
<polygon fill="none" stroke="#000000" points="3393,-78 3393,-130 3523,-130 3523,-78 3393,-78"/>
</g>
<g id="clust62" class="cluster">
<title>cluster_LoginModule_imports</title>
<polygon fill="none" stroke="#000000" points="3231,-78 3231,-130 3385,-130 3385,-78 3231,-78"/>
</g>
<g id="clust65" class="cluster">
<title>cluster_LoginModule_providers</title>
<polygon fill="none" stroke="#000000" points="3081,-78 3081,-130 3223,-130 3223,-78 3081,-78"/>
</g>
<g id="clust72" class="cluster">
<title>cluster_RegistrazioneModule</title>
<polygon fill="none" stroke="#000000" stroke-dasharray="1,5" points="3539,-70 3539,-282 4145,-282 4145,-70 3539,-70"/>
</g>
<g id="clust73" class="cluster">
<title>cluster_RegistrazioneModule_declarations</title>
<polygon fill="none" stroke="#000000" points="3963,-78 3963,-130 4137,-130 4137,-78 3963,-78"/>
</g>
<g id="clust75" class="cluster">
<title>cluster_RegistrazioneModule_imports</title>
<polygon fill="none" stroke="#000000" points="3757,-78 3757,-130 3955,-130 3955,-78 3757,-78"/>
</g>
<g id="clust76" class="cluster">
<title>cluster_RegistrazioneModule_exports</title>
<polygon fill="none" stroke="#000000" points="3663,-222 3663,-274 3841,-274 3841,-222 3663,-222"/>
</g>
<g id="clust78" class="cluster">
<title>cluster_RegistrazioneModule_providers</title>
<polygon fill="none" stroke="#000000" points="3547,-78 3547,-130 3749,-130 3749,-78 3547,-78"/>
</g>
<g id="clust85" class="cluster">
<title>cluster_SharedModule</title>
<polygon fill="none" stroke="#000000" stroke-dasharray="1,5" points="1006,-146 1006,-214 2377,-214 2377,-146 1006,-146"/>
</g>
<g id="clust86" class="cluster">
<title>cluster_SharedModule_declarations</title>
<polygon fill="none" stroke="#000000" points="1703,-154 1703,-206 2369,-206 2369,-154 1703,-154"/>
</g>
<g id="clust92" class="cluster">
<title>cluster_SharedModule_exports</title>
<polygon fill="none" stroke="#000000" points="1014,-154 1014,-206 1695,-206 1695,-154 1014,-154"/>
</g>
<!-- AppComponent -->
<g id="node1" class="node">
<title>AppComponent</title>
<polygon fill="#ffffb3" stroke="#000000" points="492.9399,-198 387.0601,-198 387.0601,-162 492.9399,-162 492.9399,-198"/>
<text text-anchor="middle" x="440" y="-175.8" font-family="Times,serif" font-size="14.00" fill="#000000">AppComponent</text>
</g>
<!-- AppModule -->
<g id="node2" class="node">
<title>AppModule</title>
<polygon fill="#8dd3c7" stroke="#000000" points="340.6571,-266 337.6571,-270 316.6571,-270 313.6571,-266 257.3429,-266 257.3429,-230 340.6571,-230 340.6571,-266"/>
<text text-anchor="middle" x="299" y="-243.8" font-family="Times,serif" font-size="14.00" fill="#000000">AppModule</text>
</g>
<!-- AppComponent&#45;&gt;AppModule -->
<g id="edge1" class="edge">
<title>AppComponent&#45;&gt;AppModule</title>
<path fill="none" stroke="#000000" d="M440,-198.2228C440,-218.3652 440,-248 440,-248 440,-248 350.9229,-248 350.9229,-248"/>
<polygon fill="#000000" stroke="#000000" points="350.9229,-244.5001 340.9229,-248 350.9229,-251.5001 350.9229,-244.5001"/>
</g>
<!-- AppComponent  -->
<g id="node5" class="node">
<title>AppComponent </title>
<polygon fill="#80b1d3" stroke="#000000" points="353.439,-334 244.561,-334 244.561,-298 353.439,-298 353.439,-334"/>
<text text-anchor="middle" x="299" y="-311.8" font-family="Times,serif" font-size="14.00" fill="#000000">AppComponent </text>
</g>
<!-- AppModule&#45;&gt;AppComponent  -->
<g id="edge4" class="edge">
<title>AppModule&#45;&gt;AppComponent </title>
<path fill="none" stroke="#000000" stroke-dasharray="1,5" d="M299,-266.2228C299,-266.2228 299,-287.7269 299,-287.7269"/>
<polygon fill="#000000" stroke="#000000" points="295.5001,-287.7269 299,-297.7269 302.5001,-287.727 295.5001,-287.7269"/>
</g>
<!-- AppRoutingModule -->
<g id="node3" class="node">
<title>AppRoutingModule</title>
<polygon fill="#8dd3c7" stroke="#000000" points="363.2744,-198 360.2744,-202 339.2744,-202 336.2744,-198 234.7256,-198 234.7256,-162 363.2744,-162 363.2744,-198"/>
<text text-anchor="middle" x="299" y="-175.8" font-family="Times,serif" font-size="14.00" fill="#000000">AppRoutingModule</text>
</g>
<!-- AppRoutingModule&#45;&gt;AppModule -->
<g id="edge2" class="edge">
<title>AppRoutingModule&#45;&gt;AppModule</title>
<path fill="none" stroke="#000000" d="M299,-198.2228C299,-198.2228 299,-219.7269 299,-219.7269"/>
<polygon fill="#000000" stroke="#000000" points="295.5001,-219.7269 299,-229.7269 302.5001,-219.727 295.5001,-219.7269"/>
</g>
<!-- CoreModule -->
<g id="node4" class="node">
<title>CoreModule</title>
<polygon fill="#8dd3c7" stroke="#000000" points="216.2619,-198 213.2619,-202 192.2619,-202 189.2619,-198 129.7381,-198 129.7381,-162 216.2619,-162 216.2619,-198"/>
<text text-anchor="middle" x="173" y="-175.8" font-family="Times,serif" font-size="14.00" fill="#000000">CoreModule</text>
</g>
<!-- CoreModule&#45;&gt;AppModule -->
<g id="edge3" class="edge">
<title>CoreModule&#45;&gt;AppModule</title>
<path fill="none" stroke="#000000" d="M173,-198.2228C173,-218.3652 173,-248 173,-248 173,-248 247.0438,-248 247.0438,-248"/>
<polygon fill="#000000" stroke="#000000" points="247.0439,-251.5001 257.0438,-248 247.0438,-244.5001 247.0439,-251.5001"/>
</g>
<!-- CarrelloComponent -->
<g id="node6" class="node">
<title>CarrelloComponent</title>
<polygon fill="#ffffb3" stroke="#000000" points="691.7008,-122 564.2992,-122 564.2992,-86 691.7008,-86 691.7008,-122"/>
<text text-anchor="middle" x="628" y="-99.8" font-family="Times,serif" font-size="14.00" fill="#000000">CarrelloComponent</text>
</g>
<!-- CarrelloModule -->
<g id="node7" class="node">
<title>CarrelloModule</title>
<polygon fill="#8dd3c7" stroke="#000000" points="843.9188,-198 840.9188,-202 819.9188,-202 816.9188,-198 738.0812,-198 738.0812,-162 843.9188,-162 843.9188,-198"/>
<text text-anchor="middle" x="791" y="-175.8" font-family="Times,serif" font-size="14.00" fill="#000000">CarrelloModule</text>
</g>
<!-- CarrelloComponent&#45;&gt;CarrelloModule -->
<g id="edge5" class="edge">
<title>CarrelloComponent&#45;&gt;CarrelloModule</title>
<path fill="none" stroke="#000000" d="M628,-122.0109C628,-144.4852 628,-180 628,-180 628,-180 728.0786,-180 728.0786,-180"/>
<polygon fill="#000000" stroke="#000000" points="728.0786,-183.5001 738.0786,-180 728.0785,-176.5001 728.0786,-183.5001"/>
</g>
<!-- CarrelloRoutingModule -->
<g id="node8" class="node">
<title>CarrelloRoutingModule</title>
<polygon fill="#8dd3c7" stroke="#000000" points="866.0365,-122 863.0365,-126 842.0365,-126 839.0365,-122 715.9635,-122 715.9635,-86 866.0365,-86 866.0365,-122"/>
<text text-anchor="middle" x="791" y="-99.8" font-family="Times,serif" font-size="14.00" fill="#000000">CarrelloRoutingModule</text>
</g>
<!-- CarrelloRoutingModule&#45;&gt;CarrelloModule -->
<g id="edge6" class="edge">
<title>CarrelloRoutingModule&#45;&gt;CarrelloModule</title>
<path fill="none" stroke="#000000" d="M791,-122.0109C791,-122.0109 791,-151.855 791,-151.855"/>
<polygon fill="#000000" stroke="#000000" points="787.5001,-151.8549 791,-161.855 794.5001,-151.855 787.5001,-151.8549"/>
</g>
<!-- SharedModule -->
<g id="node9" class="node">
<title>SharedModule</title>
<polygon fill="#8dd3c7" stroke="#000000" points="982.4231,-122 979.4231,-126 958.4231,-126 955.4231,-122 883.5769,-122 883.5769,-86 982.4231,-86 982.4231,-122"/>
<text text-anchor="middle" x="933" y="-99.8" font-family="Times,serif" font-size="14.00" fill="#000000">SharedModule</text>
</g>
<!-- SharedModule&#45;&gt;CarrelloModule -->
<g id="edge7" class="edge">
<title>SharedModule&#45;&gt;CarrelloModule</title>
<path fill="none" stroke="#000000" d="M949.4037,-122.1985C949.4037,-146.3563 949.4037,-186 949.4037,-186 949.4037,-186 853.7461,-186 853.7461,-186"/>
<polygon fill="#000000" stroke="#000000" points="853.7462,-182.5001 843.7461,-186 853.7461,-189.5001 853.7462,-182.5001"/>
</g>
<!-- CustomizeModule -->
<g id="node13" class="node">
<title>CustomizeModule</title>
<polygon fill="#8dd3c7" stroke="#000000" points="2542.9328,-198 2539.9328,-202 2518.9328,-202 2515.9328,-198 2423.0672,-198 2423.0672,-162 2542.9328,-162 2542.9328,-198"/>
<text text-anchor="middle" x="2483" y="-175.8" font-family="Times,serif" font-size="14.00" fill="#000000">CustomizeModule</text>
</g>
<!-- SharedModule&#45;&gt;CustomizeModule -->
<g id="edge12" class="edge">
<title>SharedModule&#45;&gt;CustomizeModule</title>
<path fill="none" stroke="#000000" d="M982.416,-90C1236.1504,-90 2380.7496,-90 2380.7496,-90 2380.7496,-90 2380.7496,-180 2380.7496,-180 2380.7496,-180 2413.2247,-180 2413.2247,-180"/>
<polygon fill="#000000" stroke="#000000" points="2413.2247,-183.5001 2423.2247,-180 2413.2247,-176.5001 2413.2247,-183.5001"/>
</g>
<!-- HomeModule -->
<g id="node16" class="node">
<title>HomeModule</title>
<polygon fill="#8dd3c7" stroke="#000000" points="2886.7619,-198 2883.7619,-202 2862.7619,-202 2859.7619,-198 2793.2381,-198 2793.2381,-162 2886.7619,-162 2886.7619,-198"/>
<text text-anchor="middle" x="2840" y="-175.8" font-family="Times,serif" font-size="14.00" fill="#000000">HomeModule</text>
</g>
<!-- SharedModule&#45;&gt;HomeModule -->
<g id="edge15" class="edge">
<title>SharedModule&#45;&gt;HomeModule</title>
<path fill="none" stroke="#000000" d="M900.1926,-122.0555C900.1926,-133.439 900.1926,-146 900.1926,-146 900.1926,-146 2824.3731,-146 2824.3731,-146 2824.3731,-146 2824.3731,-151.8056 2824.3731,-151.8056"/>
<polygon fill="#000000" stroke="#000000" points="2820.8732,-151.8055 2824.3731,-161.8056 2827.8732,-151.8056 2820.8732,-151.8055"/>
</g>
<!-- LoginModule -->
<g id="node19" class="node">
<title>LoginModule</title>
<polygon fill="#8dd3c7" stroke="#000000" points="3276.493,-198 3273.493,-202 3252.493,-202 3249.493,-198 3183.507,-198 3183.507,-162 3276.493,-162 3276.493,-198"/>
<text text-anchor="middle" x="3230" y="-175.8" font-family="Times,serif" font-size="14.00" fill="#000000">LoginModule</text>
</g>
<!-- SharedModule&#45;&gt;LoginModule -->
<g id="edge18" class="edge">
<title>SharedModule&#45;&gt;LoginModule</title>
<path fill="none" stroke="#000000" d="M916.5963,-122.1944C916.5963,-130.2782 916.5963,-138 916.5963,-138 916.5963,-138 3194.0225,-138 3194.0225,-138 3194.0225,-138 3194.0225,-151.9445 3194.0225,-151.9445"/>
<polygon fill="#000000" stroke="#000000" points="3190.5226,-151.9444 3194.0225,-161.9445 3197.5226,-151.9445 3190.5226,-151.9444"/>
</g>
<!-- RegistrazioneModule -->
<g id="node23" class="node">
<title>RegistrazioneModule</title>
<polygon fill="#8dd3c7" stroke="#000000" points="3820.0226,-198 3817.0226,-202 3796.0226,-202 3793.0226,-198 3683.9774,-198 3683.9774,-162 3820.0226,-162 3820.0226,-198"/>
<text text-anchor="middle" x="3752" y="-175.8" font-family="Times,serif" font-size="14.00" fill="#000000">RegistrazioneModule</text>
</g>
<!-- SharedModule&#45;&gt;RegistrazioneModule -->
<g id="edge22" class="edge">
<title>SharedModule&#45;&gt;RegistrazioneModule</title>
<path fill="none" stroke="#000000" d="M933,-122.0579C933,-126.4945 933,-130 933,-130 933,-130 3702.8547,-130 3702.8547,-130 3702.8547,-130 3702.8547,-151.9489 3702.8547,-151.9489"/>
<polygon fill="#000000" stroke="#000000" points="3699.3548,-151.9488 3702.8547,-161.9489 3706.3548,-151.9489 3699.3548,-151.9488"/>
</g>
<!-- CustomizeFormComponent  -->
<g id="node31" class="node">
<title>CustomizeFormComponent </title>
<polygon fill="#fb8072" stroke="#000000" points="1686.5484,-198 1511.4516,-198 1511.4516,-162 1686.5484,-162 1686.5484,-198"/>
<text text-anchor="middle" x="1599" y="-175.8" font-family="Times,serif" font-size="14.00" fill="#000000">CustomizeFormComponent </text>
</g>
<!-- SharedModule&#45;&gt;CustomizeFormComponent  -->
<g id="edge29" class="edge">
<title>SharedModule&#45;&gt;CustomizeFormComponent </title>
<path fill="none" stroke="#000000" stroke-dasharray="5,2" d="M982.243,-110C1136.3193,-110 1599,-110 1599,-110 1599,-110 1599,-151.9733 1599,-151.9733"/>
<polygon fill="#000000" stroke="#000000" points="1595.5001,-151.9732 1599,-161.9733 1602.5001,-151.9733 1595.5001,-151.9732"/>
</g>
<!-- InputTextComponent  -->
<g id="node32" class="node">
<title>InputTextComponent </title>
<polygon fill="#fb8072" stroke="#000000" points="1493.0414,-198 1352.9586,-198 1352.9586,-162 1493.0414,-162 1493.0414,-198"/>
<text text-anchor="middle" x="1423" y="-175.8" font-family="Times,serif" font-size="14.00" fill="#000000">InputTextComponent </text>
</g>
<!-- SharedModule&#45;&gt;InputTextComponent  -->
<g id="edge30" class="edge">
<title>SharedModule&#45;&gt;InputTextComponent </title>
<path fill="none" stroke="#000000" stroke-dasharray="5,2" d="M982.2266,-114C1106.4839,-114 1423,-114 1423,-114 1423,-114 1423,-151.9652 1423,-151.9652"/>
<polygon fill="#000000" stroke="#000000" points="1419.5001,-151.9652 1423,-161.9652 1426.5001,-151.9652 1419.5001,-151.9652"/>
</g>
<!-- PagamentoComponent  -->
<g id="node33" class="node">
<title>PagamentoComponent </title>
<polygon fill="#fb8072" stroke="#000000" points="1334.54,-198 1187.46,-198 1187.46,-162 1334.54,-162 1334.54,-198"/>
<text text-anchor="middle" x="1261" y="-175.8" font-family="Times,serif" font-size="14.00" fill="#000000">PagamentoComponent </text>
</g>
<!-- SharedModule&#45;&gt;PagamentoComponent  -->
<g id="edge31" class="edge">
<title>SharedModule&#45;&gt;PagamentoComponent </title>
<path fill="none" stroke="#000000" stroke-dasharray="5,2" d="M982.46,-118C1074.0898,-118 1261,-118 1261,-118 1261,-118 1261,-151.7333 1261,-151.7333"/>
<polygon fill="#000000" stroke="#000000" points="1257.5001,-151.7333 1261,-161.7333 1264.5001,-151.7333 1257.5001,-151.7333"/>
</g>
<!-- Step2FormComponent  -->
<g id="node34" class="node">
<title>Step2FormComponent </title>
<polygon fill="#fb8072" stroke="#000000" points="1169.554,-198 1022.446,-198 1022.446,-162 1169.554,-162 1169.554,-198"/>
<text text-anchor="middle" x="1096" y="-175.8" font-family="Times,serif" font-size="14.00" fill="#000000">Step2FormComponent </text>
</g>
<!-- SharedModule&#45;&gt;Step2FormComponent  -->
<g id="edge32" class="edge">
<title>SharedModule&#45;&gt;Step2FormComponent </title>
<path fill="none" stroke="#000000" stroke-dasharray="5,2" d="M965.8074,-122.0267C965.8074,-142.7672 965.8074,-174 965.8074,-174 965.8074,-174 1012.1546,-174 1012.1546,-174"/>
<polygon fill="#000000" stroke="#000000" points="1012.1546,-177.5001 1022.1546,-174 1012.1545,-170.5001 1012.1546,-177.5001"/>
</g>
<!-- HttpCommunicationsService -->
<g id="node10" class="node">
<title>HttpCommunicationsService</title>
<ellipse fill="#fdb462" stroke="#000000" cx="401" cy="-104" rx="123.292" ry="18"/>
<text text-anchor="middle" x="401" y="-99.8" font-family="Times,serif" font-size="14.00" fill="#000000">HttpCommunicationsService</text>
</g>
<!-- HttpCommunicationsService&#45;&gt;CoreModule -->
<g id="edge8" class="edge">
<title>HttpCommunicationsService&#45;&gt;CoreModule</title>
<path fill="none" stroke="#000000" d="M320.6206,-117.6627C320.6206,-132.4668 320.6206,-154 320.6206,-154 320.6206,-154 187.4603,-154 187.4603,-154 187.4603,-154 187.4603,-154.7942 187.4603,-154.7942"/>
<polygon fill="#000000" stroke="#000000" points="183.9604,-151.9421 187.4603,-161.9421 190.9604,-151.9422 183.9604,-151.9421"/>
</g>
<!-- RegistrazioneServerService -->
<g id="node11" class="node">
<title>RegistrazioneServerService</title>
<ellipse fill="#fdb462" stroke="#000000" cx="142" cy="-104" rx="118.0715" ry="18"/>
<text text-anchor="middle" x="142" y="-99.8" font-family="Times,serif" font-size="14.00" fill="#000000">RegistrazioneServerService</text>
</g>
<!-- RegistrazioneServerService&#45;&gt;CoreModule -->
<g id="edge9" class="edge">
<title>RegistrazioneServerService&#45;&gt;CoreModule</title>
<path fill="none" stroke="#000000" d="M158.5397,-122.0109C158.5397,-122.0109 158.5397,-151.855 158.5397,-151.855"/>
<polygon fill="#000000" stroke="#000000" points="155.0398,-151.8549 158.5397,-161.855 162.0398,-151.855 155.0398,-151.8549"/>
</g>
<!-- CustomizeComponent -->
<g id="node12" class="node">
<title>CustomizeComponent</title>
<polygon fill="#ffffb3" stroke="#000000" points="2730.7148,-122 2589.2852,-122 2589.2852,-86 2730.7148,-86 2730.7148,-122"/>
<text text-anchor="middle" x="2660" y="-99.8" font-family="Times,serif" font-size="14.00" fill="#000000">CustomizeComponent</text>
</g>
<!-- CustomizeComponent&#45;&gt;CustomizeModule -->
<g id="edge10" class="edge">
<title>CustomizeComponent&#45;&gt;CustomizeModule</title>
<path fill="none" stroke="#000000" d="M2660,-122.0109C2660,-144.4852 2660,-180 2660,-180 2660,-180 2552.9241,-180 2552.9241,-180"/>
<polygon fill="#000000" stroke="#000000" points="2552.9242,-176.5001 2542.9241,-180 2552.9241,-183.5001 2552.9242,-176.5001"/>
</g>
<!-- CustomizeRoutingModule -->
<g id="node14" class="node">
<title>CustomizeRoutingModule</title>
<polygon fill="#8dd3c7" stroke="#000000" points="2565.0504,-122 2562.0504,-126 2541.0504,-126 2538.0504,-122 2400.9496,-122 2400.9496,-86 2565.0504,-86 2565.0504,-122"/>
<text text-anchor="middle" x="2483" y="-99.8" font-family="Times,serif" font-size="14.00" fill="#000000">CustomizeRoutingModule</text>
</g>
<!-- CustomizeRoutingModule&#45;&gt;CustomizeModule -->
<g id="edge11" class="edge">
<title>CustomizeRoutingModule&#45;&gt;CustomizeModule</title>
<path fill="none" stroke="#000000" d="M2483,-122.0109C2483,-122.0109 2483,-151.855 2483,-151.855"/>
<polygon fill="#000000" stroke="#000000" points="2479.5001,-151.8549 2483,-161.855 2486.5001,-151.855 2479.5001,-151.8549"/>
</g>
<!-- HomeComponent -->
<g id="node15" class="node">
<title>HomeComponent</title>
<polygon fill="#ffffb3" stroke="#000000" points="3048.5451,-122 2933.4549,-122 2933.4549,-86 3048.5451,-86 3048.5451,-122"/>
<text text-anchor="middle" x="2991" y="-99.8" font-family="Times,serif" font-size="14.00" fill="#000000">HomeComponent</text>
</g>
<!-- HomeComponent&#45;&gt;HomeModule -->
<g id="edge13" class="edge">
<title>HomeComponent&#45;&gt;HomeModule</title>
<path fill="none" stroke="#000000" d="M2991,-122.0109C2991,-144.4852 2991,-180 2991,-180 2991,-180 2896.9496,-180 2896.9496,-180"/>
<polygon fill="#000000" stroke="#000000" points="2896.9497,-176.5001 2886.9496,-180 2896.9496,-183.5001 2896.9497,-176.5001"/>
</g>
<!-- HomeRoutingModule -->
<g id="node17" class="node">
<title>HomeRoutingModule</title>
<polygon fill="#8dd3c7" stroke="#000000" points="2909.3795,-122 2906.3795,-126 2885.3795,-126 2882.3795,-122 2770.6205,-122 2770.6205,-86 2909.3795,-86 2909.3795,-122"/>
<text text-anchor="middle" x="2840" y="-99.8" font-family="Times,serif" font-size="14.00" fill="#000000">HomeRoutingModule</text>
</g>
<!-- HomeRoutingModule&#45;&gt;HomeModule -->
<g id="edge14" class="edge">
<title>HomeRoutingModule&#45;&gt;HomeModule</title>
<path fill="none" stroke="#000000" d="M2855.6269,-122.0109C2855.6269,-122.0109 2855.6269,-151.855 2855.6269,-151.855"/>
<polygon fill="#000000" stroke="#000000" points="2852.127,-151.8549 2855.6269,-161.855 2859.127,-151.855 2852.127,-151.8549"/>
</g>
<!-- LoginComponent -->
<g id="node18" class="node">
<title>LoginComponent</title>
<polygon fill="#ffffb3" stroke="#000000" points="3515.2758,-122 3400.7242,-122 3400.7242,-86 3515.2758,-86 3515.2758,-122"/>
<text text-anchor="middle" x="3458" y="-99.8" font-family="Times,serif" font-size="14.00" fill="#000000">LoginComponent</text>
</g>
<!-- LoginComponent&#45;&gt;LoginModule -->
<g id="edge16" class="edge">
<title>LoginComponent&#45;&gt;LoginModule</title>
<path fill="none" stroke="#000000" d="M3458,-122.0109C3458,-144.4852 3458,-180 3458,-180 3458,-180 3286.6894,-180 3286.6894,-180"/>
<polygon fill="#000000" stroke="#000000" points="3286.6894,-176.5001 3276.6894,-180 3286.6893,-183.5001 3286.6894,-176.5001"/>
</g>
<!-- LoginRoutingModule -->
<g id="node20" class="node">
<title>LoginRoutingModule</title>
<polygon fill="#8dd3c7" stroke="#000000" points="3377.1108,-122 3374.1108,-126 3353.1108,-126 3350.1108,-122 3238.8892,-122 3238.8892,-86 3377.1108,-86 3377.1108,-122"/>
<text text-anchor="middle" x="3308" y="-99.8" font-family="Times,serif" font-size="14.00" fill="#000000">LoginRoutingModule</text>
</g>
<!-- LoginRoutingModule&#45;&gt;LoginModule -->
<g id="edge17" class="edge">
<title>LoginRoutingModule&#45;&gt;LoginModule</title>
<path fill="none" stroke="#000000" d="M3257.7206,-122.0109C3257.7206,-122.0109 3257.7206,-151.855 3257.7206,-151.855"/>
<polygon fill="#000000" stroke="#000000" points="3254.2206,-151.8549 3257.7206,-161.855 3261.2206,-151.855 3254.2206,-151.8549"/>
</g>
<!-- LoginService -->
<g id="node21" class="node">
<title>LoginService</title>
<ellipse fill="#fdb462" stroke="#000000" cx="3152" cy="-104" rx="63.1209" ry="18"/>
<text text-anchor="middle" x="3152" y="-99.8" font-family="Times,serif" font-size="14.00" fill="#000000">LoginService</text>
</g>
<!-- LoginService&#45;&gt;LoginModule -->
<g id="edge19" class="edge">
<title>LoginService&#45;&gt;LoginModule</title>
<path fill="none" stroke="#000000" d="M3204.5414,-114.2497C3204.5414,-114.2497 3204.5414,-151.7689 3204.5414,-151.7689"/>
<polygon fill="#000000" stroke="#000000" points="3201.0415,-151.7689 3204.5414,-161.7689 3208.0415,-151.769 3201.0415,-151.7689"/>
</g>
<!-- RegistrazioneComponent -->
<g id="node22" class="node">
<title>RegistrazioneComponent</title>
<polygon fill="#ffffb3" stroke="#000000" points="4129.3047,-122 3970.6953,-122 3970.6953,-86 4129.3047,-86 4129.3047,-122"/>
<text text-anchor="middle" x="4050" y="-99.8" font-family="Times,serif" font-size="14.00" fill="#000000">RegistrazioneComponent</text>
</g>
<!-- RegistrazioneComponent&#45;&gt;RegistrazioneModule -->
<g id="edge20" class="edge">
<title>RegistrazioneComponent&#45;&gt;RegistrazioneModule</title>
<path fill="none" stroke="#000000" d="M4050,-122.0109C4050,-144.4852 4050,-180 4050,-180 4050,-180 3830.3672,-180 3830.3672,-180"/>
<polygon fill="#000000" stroke="#000000" points="3830.3673,-176.5001 3820.3672,-180 3830.3672,-183.5001 3830.3673,-176.5001"/>
</g>
<!-- RegistrazioneComponent  -->
<g id="node25" class="node">
<title>RegistrazioneComponent </title>
<polygon fill="#fb8072" stroke="#000000" points="3832.8045,-266 3671.1955,-266 3671.1955,-230 3832.8045,-230 3832.8045,-266"/>
<text text-anchor="middle" x="3752" y="-243.8" font-family="Times,serif" font-size="14.00" fill="#000000">RegistrazioneComponent </text>
</g>
<!-- RegistrazioneModule&#45;&gt;RegistrazioneComponent  -->
<g id="edge23" class="edge">
<title>RegistrazioneModule&#45;&gt;RegistrazioneComponent </title>
<path fill="none" stroke="#000000" stroke-dasharray="5,2" d="M3752,-198.2228C3752,-198.2228 3752,-219.7269 3752,-219.7269"/>
<polygon fill="#000000" stroke="#000000" points="3748.5001,-219.7269 3752,-229.7269 3755.5001,-219.727 3748.5001,-219.7269"/>
</g>
<!-- RegistrazioneRoutingModule -->
<g id="node24" class="node">
<title>RegistrazioneRoutingModule</title>
<polygon fill="#8dd3c7" stroke="#000000" points="3946.64,-122 3943.64,-126 3922.64,-126 3919.64,-122 3765.36,-122 3765.36,-86 3946.64,-86 3946.64,-122"/>
<text text-anchor="middle" x="3856" y="-99.8" font-family="Times,serif" font-size="14.00" fill="#000000">RegistrazioneRoutingModule</text>
</g>
<!-- RegistrazioneRoutingModule&#45;&gt;RegistrazioneModule -->
<g id="edge21" class="edge">
<title>RegistrazioneRoutingModule&#45;&gt;RegistrazioneModule</title>
<path fill="none" stroke="#000000" d="M3792.7206,-122.0109C3792.7206,-122.0109 3792.7206,-151.855 3792.7206,-151.855"/>
<polygon fill="#000000" stroke="#000000" points="3789.2206,-151.8549 3792.7206,-161.855 3796.2206,-151.855 3789.2206,-151.8549"/>
</g>
<!-- RegistrazioneService -->
<g id="node26" class="node">
<title>RegistrazioneService</title>
<ellipse fill="#fdb462" stroke="#000000" cx="3648" cy="-104" rx="93.1716" ry="18"/>
<text text-anchor="middle" x="3648" y="-99.8" font-family="Times,serif" font-size="14.00" fill="#000000">RegistrazioneService</text>
</g>
<!-- RegistrazioneService&#45;&gt;RegistrazioneModule -->
<g id="edge24" class="edge">
<title>RegistrazioneService&#45;&gt;RegistrazioneModule</title>
<path fill="none" stroke="#000000" d="M3721.9702,-115.2141C3721.9702,-115.2141 3721.9702,-151.9559 3721.9702,-151.9559"/>
<polygon fill="#000000" stroke="#000000" points="3718.4703,-151.9559 3721.9702,-161.9559 3725.4703,-151.956 3718.4703,-151.9559"/>
</g>
<!-- CustomizeFormComponent -->
<g id="node27" class="node">
<title>CustomizeFormComponent</title>
<polygon fill="#ffffb3" stroke="#000000" points="2360.549,-198 2189.451,-198 2189.451,-162 2360.549,-162 2360.549,-198"/>
<text text-anchor="middle" x="2275" y="-175.8" font-family="Times,serif" font-size="14.00" fill="#000000">CustomizeFormComponent</text>
</g>
<!-- CustomizeFormComponent&#45;&gt;SharedModule -->
<g id="edge25" class="edge">
<title>CustomizeFormComponent&#45;&gt;SharedModule</title>
<path fill="none" stroke="#000000" d="M2275,-161.7616C2275,-136.5171 2275,-94 2275,-94 2275,-94 992.3541,-94 992.3541,-94"/>
<polygon fill="#000000" stroke="#000000" points="992.3541,-90.5001 982.3541,-94 992.354,-97.5001 992.3541,-90.5001"/>
</g>
<!-- InputTextComponent -->
<g id="node28" class="node">
<title>InputTextComponent</title>
<polygon fill="#ffffb3" stroke="#000000" points="2171.0422,-198 2034.9578,-198 2034.9578,-162 2171.0422,-162 2171.0422,-198"/>
<text text-anchor="middle" x="2103" y="-175.8" font-family="Times,serif" font-size="14.00" fill="#000000">InputTextComponent</text>
</g>
<!-- InputTextComponent&#45;&gt;SharedModule -->
<g id="edge26" class="edge">
<title>InputTextComponent&#45;&gt;SharedModule</title>
<path fill="none" stroke="#000000" d="M2103,-161.8015C2103,-137.6437 2103,-98 2103,-98 2103,-98 992.5261,-98 992.5261,-98"/>
<polygon fill="#000000" stroke="#000000" points="992.5262,-94.5001 982.5261,-98 992.5261,-101.5001 992.5262,-94.5001"/>
</g>
<!-- PagamentoComponent -->
<g id="node29" class="node">
<title>PagamentoComponent</title>
<polygon fill="#ffffb3" stroke="#000000" points="2016.5407,-198 1873.4593,-198 1873.4593,-162 2016.5407,-162 2016.5407,-198"/>
<text text-anchor="middle" x="1945" y="-175.8" font-family="Times,serif" font-size="14.00" fill="#000000">PagamentoComponent</text>
</g>
<!-- PagamentoComponent&#45;&gt;SharedModule -->
<g id="edge27" class="edge">
<title>PagamentoComponent&#45;&gt;SharedModule</title>
<path fill="none" stroke="#000000" d="M1945,-161.9092C1945,-138.8672 1945,-102 1945,-102 1945,-102 992.4959,-102 992.4959,-102"/>
<polygon fill="#000000" stroke="#000000" points="992.496,-98.5001 982.4959,-102 992.4959,-105.5001 992.496,-98.5001"/>
</g>
<!-- Step2FormComponent -->
<g id="node30" class="node">
<title>Step2FormComponent</title>
<polygon fill="#ffffb3" stroke="#000000" points="1854.5547,-198 1711.4453,-198 1711.4453,-162 1854.5547,-162 1854.5547,-198"/>
<text text-anchor="middle" x="1783" y="-175.8" font-family="Times,serif" font-size="14.00" fill="#000000">Step2FormComponent</text>
</g>
<!-- Step2FormComponent&#45;&gt;SharedModule -->
<g id="edge28" class="edge">
<title>Step2FormComponent&#45;&gt;SharedModule</title>
<path fill="none" stroke="#000000" d="M1783,-161.7079C1783,-139.7943 1783,-106 1783,-106 1783,-106 992.3736,-106 992.3736,-106"/>
<polygon fill="#000000" stroke="#000000" points="992.3736,-102.5001 982.3736,-106 992.3736,-109.5001 992.3736,-102.5001"/>
</g>
</g>
</svg>
