<?xml version="1.0" encoding="UTF-8" standalone="no"?>
<!DOCTYPE svg PUBLIC "-//W3C//DTD SVG 1.1//EN"
 "http://www.w3.org/Graphics/SVG/1.1/DTD/svg11.dtd">
<!-- Generated by graphviz version 2.40.1 (20161225.0304)
 -->
<!-- Title: dependencies Pages: 1 -->
<svg width="721pt" height="284pt"
 viewBox="0.00 0.00 721.00 284.00" xmlns="http://www.w3.org/2000/svg" xmlns:xlink="http://www.w3.org/1999/xlink">
<g id="graph0" class="graph" transform="scale(1 1) rotate(0) translate(4 280)">
<title>dependencies</title>
<polygon fill="#ffffff" stroke="transparent" points="-4,4 -4,-280 717,-280 717,4 -4,4"/>
<text text-anchor="start" x="335.5091" y="-42.4" font-family="sans-serif" font-weight="bold" font-size="14.00" fill="#000000">Legend</text>
<polygon fill="#ffffb3" stroke="transparent" points="122.5,-10 122.5,-30 142.5,-30 142.5,-10 122.5,-10"/>
<text text-anchor="start" x="146.129" y="-15.4" font-family="sans-serif" font-size="14.00" fill="#000000"> &#160;Declarations</text>
<polygon fill="#8dd3c7" stroke="transparent" points="235.5,-10 235.5,-30 255.5,-30 255.5,-10 235.5,-10"/>
<text text-anchor="start" x="259.2251" y="-15.4" font-family="sans-serif" font-size="14.00" fill="#000000"> &#160;Module</text>
<polygon fill="#80b1d3" stroke="transparent" points="321.5,-10 321.5,-30 341.5,-30 341.5,-10 321.5,-10"/>
<text text-anchor="start" x="345.2812" y="-15.4" font-family="sans-serif" font-size="14.00" fill="#000000"> &#160;Bootstrap</text>
<polygon fill="#fdb462" stroke="transparent" points="418.5,-10 418.5,-30 438.5,-30 438.5,-10 418.5,-10"/>
<text text-anchor="start" x="442.1732" y="-15.4" font-family="sans-serif" font-size="14.00" fill="#000000"> &#160;Providers</text>
<polygon fill="#fb8072" stroke="transparent" points="514.5,-10 514.5,-30 534.5,-30 534.5,-10 514.5,-10"/>
<text text-anchor="start" x="538.2258" y="-15.4" font-family="sans-serif" font-size="14.00" fill="#000000"> &#160;Exports</text>
<g id="clust1" class="cluster">
<title>cluster_SharedModule</title>
<polygon fill="none" stroke="#000000" stroke-dasharray="1,5" points="8,-70 8,-268 705,-268 705,-70 8,-70"/>
</g>
<g id="clust2" class="cluster">
<title>cluster_SharedModule_declarations</title>
<polygon fill="none" stroke="#000000" points="25,-78 25,-130 691,-130 691,-78 25,-78"/>
</g>
<g id="clust8" class="cluster">
<title>cluster_SharedModule_exports</title>
<polygon fill="none" stroke="#000000" points="16,-208 16,-260 697,-260 697,-208 16,-208"/>
</g>
<!-- CustomizeFormComponent -->
<g id="node1" class="node">
<title>CustomizeFormComponent</title>
<polygon fill="#ffffb3" stroke="#000000" points="682.549,-122 511.451,-122 511.451,-86 682.549,-86 682.549,-122"/>
<text text-anchor="middle" x="597" y="-99.8" font-family="Times,serif" font-size="14.00" fill="#000000">CustomizeFormComponent</text>
</g>
<!-- SharedModule -->
<g id="node5" class="node">
<title>SharedModule</title>
<polygon fill="#8dd3c7" stroke="#000000" points="318.4231,-187 315.4231,-191 294.4231,-191 291.4231,-187 219.5769,-187 219.5769,-151 318.4231,-151 318.4231,-187"/>
<text text-anchor="middle" x="269" y="-164.8" font-family="Times,serif" font-size="14.00" fill="#000000">SharedModule</text>
</g>
<!-- CustomizeFormComponent&#45;&gt;SharedModule -->
<g id="edge1" class="edge">
<title>CustomizeFormComponent&#45;&gt;SharedModule</title>
<path fill="none" stroke="#000000" d="M626.3414,-122.2667C626.3414,-140.5552 626.3414,-166 626.3414,-166 626.3414,-166 328.3116,-166 328.3116,-166"/>
<polygon fill="#000000" stroke="#000000" points="328.3117,-162.5001 318.3116,-166 328.3116,-169.5001 328.3117,-162.5001"/>
</g>
<!-- InputTextComponent -->
<g id="node2" class="node">
<title>InputTextComponent</title>
<polygon fill="#ffffb3" stroke="#000000" points="493.0422,-122 356.9578,-122 356.9578,-86 493.0422,-86 493.0422,-122"/>
<text text-anchor="middle" x="425" y="-99.8" font-family="Times,serif" font-size="14.00" fill="#000000">InputTextComponent</text>
</g>
<!-- InputTextComponent&#45;&gt;SharedModule -->
<g id="edge2" class="edge">
<title>InputTextComponent&#45;&gt;SharedModule</title>
<path fill="none" stroke="#000000" d="M447.7569,-122.0091C447.7569,-138.0494 447.7569,-159 447.7569,-159 447.7569,-159 328.3193,-159 328.3193,-159"/>
<polygon fill="#000000" stroke="#000000" points="328.3193,-155.5001 318.3193,-159 328.3193,-162.5001 328.3193,-155.5001"/>
</g>
<!-- PagamentoComponent -->
<g id="node3" class="node">
<title>PagamentoComponent</title>
<polygon fill="#ffffb3" stroke="#000000" points="338.5407,-122 195.4593,-122 195.4593,-86 338.5407,-86 338.5407,-122"/>
<text text-anchor="middle" x="267" y="-99.8" font-family="Times,serif" font-size="14.00" fill="#000000">PagamentoComponent</text>
</g>
<!-- PagamentoComponent&#45;&gt;SharedModule -->
<g id="edge3" class="edge">
<title>PagamentoComponent&#45;&gt;SharedModule</title>
<path fill="none" stroke="#000000" d="M269,-122.1061C269,-122.1061 269,-140.991 269,-140.991"/>
<polygon fill="#000000" stroke="#000000" points="265.5001,-140.9909 269,-150.991 272.5001,-140.991 265.5001,-140.9909"/>
</g>
<!-- Step2FormComponent -->
<g id="node4" class="node">
<title>Step2FormComponent</title>
<polygon fill="#ffffb3" stroke="#000000" points="176.5547,-122 33.4453,-122 33.4453,-86 176.5547,-86 176.5547,-122"/>
<text text-anchor="middle" x="105" y="-99.8" font-family="Times,serif" font-size="14.00" fill="#000000">Step2FormComponent</text>
</g>
<!-- Step2FormComponent&#45;&gt;SharedModule -->
<g id="edge4" class="edge">
<title>Step2FormComponent&#45;&gt;SharedModule</title>
<path fill="none" stroke="#000000" d="M125.4257,-122.0225C125.4257,-139.3734 125.4257,-163 125.4257,-163 125.4257,-163 209.5899,-163 209.5899,-163"/>
<polygon fill="#000000" stroke="#000000" points="209.5899,-166.5001 219.5899,-163 209.5898,-159.5001 209.5899,-166.5001"/>
</g>
<!-- CustomizeFormComponent  -->
<g id="node6" class="node">
<title>CustomizeFormComponent </title>
<polygon fill="#fb8072" stroke="#000000" points="688.5484,-252 513.4516,-252 513.4516,-216 688.5484,-216 688.5484,-252"/>
<text text-anchor="middle" x="601" y="-229.8" font-family="Times,serif" font-size="14.00" fill="#000000">CustomizeFormComponent </text>
</g>
<!-- SharedModule&#45;&gt;CustomizeFormComponent  -->
<g id="edge5" class="edge">
<title>SharedModule&#45;&gt;CustomizeFormComponent </title>
<path fill="none" stroke="#000000" stroke-dasharray="5,2" d="M318.352,-173C403.7189,-173 569.9086,-173 569.9086,-173 569.9086,-173 569.9086,-205.698 569.9086,-205.698"/>
<polygon fill="#000000" stroke="#000000" points="566.4087,-205.698 569.9086,-215.698 573.4087,-205.698 566.4087,-205.698"/>
</g>
<!-- InputTextComponent  -->
<g id="node7" class="node">
<title>InputTextComponent </title>
<polygon fill="#fb8072" stroke="#000000" points="495.0414,-252 354.9586,-252 354.9586,-216 495.0414,-216 495.0414,-252"/>
<text text-anchor="middle" x="425" y="-229.8" font-family="Times,serif" font-size="14.00" fill="#000000">InputTextComponent </text>
</g>
<!-- SharedModule&#45;&gt;InputTextComponent  -->
<g id="edge6" class="edge">
<title>SharedModule&#45;&gt;InputTextComponent </title>
<path fill="none" stroke="#000000" stroke-dasharray="5,2" d="M318.2362,-180C356.1922,-180 402.2431,-180 402.2431,-180 402.2431,-180 402.2431,-205.7181 402.2431,-205.7181"/>
<polygon fill="#000000" stroke="#000000" points="398.7432,-205.718 402.2431,-215.7181 405.7432,-205.7181 398.7432,-205.718"/>
</g>
<!-- PagamentoComponent  -->
<g id="node8" class="node">
<title>PagamentoComponent </title>
<polygon fill="#fb8072" stroke="#000000" points="336.54,-252 189.46,-252 189.46,-216 336.54,-216 336.54,-252"/>
<text text-anchor="middle" x="263" y="-229.8" font-family="Times,serif" font-size="14.00" fill="#000000">PagamentoComponent </text>
</g>
<!-- SharedModule&#45;&gt;PagamentoComponent  -->
<g id="edge7" class="edge">
<title>SharedModule&#45;&gt;PagamentoComponent </title>
<path fill="none" stroke="#000000" stroke-dasharray="5,2" d="M269,-187.1061C269,-187.1061 269,-205.991 269,-205.991"/>
<polygon fill="#000000" stroke="#000000" points="265.5001,-205.9909 269,-215.991 272.5001,-205.991 265.5001,-205.9909"/>
</g>
<!-- Step2FormComponent  -->
<g id="node9" class="node">
<title>Step2FormComponent </title>
<polygon fill="#fb8072" stroke="#000000" points="171.554,-252 24.446,-252 24.446,-216 171.554,-216 171.554,-252"/>
<text text-anchor="middle" x="98" y="-229.8" font-family="Times,serif" font-size="14.00" fill="#000000">Step2FormComponent </text>
</g>
<!-- SharedModule&#45;&gt;Step2FormComponent  -->
<g id="edge8" class="edge">
<title>SharedModule&#45;&gt;Step2FormComponent </title>
<path fill="none" stroke="#000000" stroke-dasharray="5,2" d="M219.6601,-175C163.4601,-175 79.3243,-175 79.3243,-175 79.3243,-175 79.3243,-205.9775 79.3243,-205.9775"/>
<polygon fill="#000000" stroke="#000000" points="75.8244,-205.9774 79.3243,-215.9775 82.8244,-205.9775 75.8244,-205.9774"/>
</g>
</g>
</svg>
