<?xml version="1.0" encoding="UTF-8" standalone="no"?>
<!DOCTYPE svg PUBLIC "-//W3C//DTD SVG 1.1//EN"
 "http://www.w3.org/Graphics/SVG/1.1/DTD/svg11.dtd">
<!-- Generated by graphviz version 2.40.1 (20161225.0304)
 -->
<!-- Title: dependencies Pages: 1 -->
<svg width="746pt" height="284pt"
 viewBox="0.00 0.00 746.00 284.00" xmlns="http://www.w3.org/2000/svg" xmlns:xlink="http://www.w3.org/1999/xlink">
<g id="graph0" class="graph" transform="scale(1 1) rotate(0) translate(4 280)">
<title>dependencies</title>
<polygon fill="#ffffff" stroke="transparent" points="-4,4 -4,-280 742,-280 742,4 -4,4"/>
<text text-anchor="start" x="348.0091" y="-42.4" font-family="sans-serif" font-weight="bold" font-size="14.00" fill="#000000">Legend</text>
<polygon fill="#ffffb3" stroke="transparent" points="135,-10 135,-30 155,-30 155,-10 135,-10"/>
<text text-anchor="start" x="158.629" y="-15.4" font-family="sans-serif" font-size="14.00" fill="#000000"> &#160;Declarations</text>
<polygon fill="#8dd3c7" stroke="transparent" points="248,-10 248,-30 268,-30 268,-10 248,-10"/>
<text text-anchor="start" x="271.7251" y="-15.4" font-family="sans-serif" font-size="14.00" fill="#000000"> &#160;Module</text>
<polygon fill="#80b1d3" stroke="transparent" points="334,-10 334,-30 354,-30 354,-10 334,-10"/>
<text text-anchor="start" x="357.7812" y="-15.4" font-family="sans-serif" font-size="14.00" fill="#000000"> &#160;Bootstrap</text>
<polygon fill="#fdb462" stroke="transparent" points="431,-10 431,-30 451,-30 451,-10 431,-10"/>
<text text-anchor="start" x="454.6732" y="-15.4" font-family="sans-serif" font-size="14.00" fill="#000000"> &#160;Providers</text>
<polygon fill="#fb8072" stroke="transparent" points="527,-10 527,-30 547,-30 547,-10 527,-10"/>
<text text-anchor="start" x="550.7258" y="-15.4" font-family="sans-serif" font-size="14.00" fill="#000000"> &#160;Exports</text>
<g id="clust1" class="cluster">
<title>cluster_RegistrazioneModule</title>
<polygon fill="none" stroke="#000000" stroke-dasharray="1,5" points="8,-70 8,-268 730,-268 730,-70 8,-70"/>
</g>
<g id="clust2" class="cluster">
<title>cluster_RegistrazioneModule_declarations</title>
<polygon fill="none" stroke="#000000" points="548,-78 548,-130 722,-130 722,-78 548,-78"/>
</g>
<g id="clust4" class="cluster">
<title>cluster_RegistrazioneModule_imports</title>
<polygon fill="none" stroke="#000000" points="226,-78 226,-130 540,-130 540,-78 226,-78"/>
</g>
<g id="clust5" class="cluster">
<title>cluster_RegistrazioneModule_exports</title>
<polygon fill="none" stroke="#000000" points="273,-208 273,-260 451,-260 451,-208 273,-208"/>
</g>
<g id="clust7" class="cluster">
<title>cluster_RegistrazioneModule_providers</title>
<polygon fill="none" stroke="#000000" points="16,-78 16,-130 218,-130 218,-78 16,-78"/>
</g>
<!-- RegistrazioneComponent -->
<g id="node1" class="node">
<title>RegistrazioneComponent</title>
<polygon fill="#ffffb3" stroke="#000000" points="714.3047,-122 555.6953,-122 555.6953,-86 714.3047,-86 714.3047,-122"/>
<text text-anchor="middle" x="635" y="-99.8" font-family="Times,serif" font-size="14.00" fill="#000000">RegistrazioneComponent</text>
</g>
<!-- RegistrazioneModule -->
<g id="node2" class="node">
<title>RegistrazioneModule</title>
<polygon fill="#8dd3c7" stroke="#000000" points="430.0226,-187 427.0226,-191 406.0226,-191 403.0226,-187 293.9774,-187 293.9774,-151 430.0226,-151 430.0226,-187"/>
<text text-anchor="middle" x="362" y="-164.8" font-family="Times,serif" font-size="14.00" fill="#000000">RegistrazioneModule</text>
</g>
<!-- RegistrazioneComponent&#45;&gt;RegistrazioneModule -->
<g id="edge1" class="edge">
<title>RegistrazioneComponent&#45;&gt;RegistrazioneModule</title>
<path fill="none" stroke="#000000" d="M635,-122.1061C635,-141.3391 635,-169 635,-169 635,-169 440.1852,-169 440.1852,-169"/>
<polygon fill="#000000" stroke="#000000" points="440.1852,-165.5001 430.1852,-169 440.1852,-172.5001 440.1852,-165.5001"/>
</g>
<!-- RegistrazioneComponent  -->
<g id="node5" class="node">
<title>RegistrazioneComponent </title>
<polygon fill="#fb8072" stroke="#000000" points="442.8045,-252 281.1955,-252 281.1955,-216 442.8045,-216 442.8045,-252"/>
<text text-anchor="middle" x="362" y="-229.8" font-family="Times,serif" font-size="14.00" fill="#000000">RegistrazioneComponent </text>
</g>
<!-- RegistrazioneModule&#45;&gt;RegistrazioneComponent  -->
<g id="edge4" class="edge">
<title>RegistrazioneModule&#45;&gt;RegistrazioneComponent </title>
<path fill="none" stroke="#000000" stroke-dasharray="5,2" d="M362,-187.1061C362,-187.1061 362,-205.991 362,-205.991"/>
<polygon fill="#000000" stroke="#000000" points="358.5001,-205.9909 362,-215.991 365.5001,-205.991 358.5001,-205.9909"/>
</g>
<!-- RegistrazioneRoutingModule -->
<g id="node3" class="node">
<title>RegistrazioneRoutingModule</title>
<polygon fill="#8dd3c7" stroke="#000000" points="531.64,-122 528.64,-126 507.64,-126 504.64,-122 350.36,-122 350.36,-86 531.64,-86 531.64,-122"/>
<text text-anchor="middle" x="441" y="-99.8" font-family="Times,serif" font-size="14.00" fill="#000000">RegistrazioneRoutingModule</text>
</g>
<!-- RegistrazioneRoutingModule&#45;&gt;RegistrazioneModule -->
<g id="edge2" class="edge">
<title>RegistrazioneRoutingModule&#45;&gt;RegistrazioneModule</title>
<path fill="none" stroke="#000000" d="M390.2206,-122.1061C390.2206,-122.1061 390.2206,-140.991 390.2206,-140.991"/>
<polygon fill="#000000" stroke="#000000" points="386.7206,-140.9909 390.2206,-150.991 393.7206,-140.991 386.7206,-140.9909"/>
</g>
<!-- SharedModule -->
<g id="node4" class="node">
<title>SharedModule</title>
<polygon fill="#8dd3c7" stroke="#000000" points="332.4231,-122 329.4231,-126 308.4231,-126 305.4231,-122 233.5769,-122 233.5769,-86 332.4231,-86 332.4231,-122"/>
<text text-anchor="middle" x="283" y="-99.8" font-family="Times,serif" font-size="14.00" fill="#000000">SharedModule</text>
</g>
<!-- SharedModule&#45;&gt;RegistrazioneModule -->
<g id="edge3" class="edge">
<title>SharedModule&#45;&gt;RegistrazioneModule</title>
<path fill="none" stroke="#000000" d="M312.9751,-122.1061C312.9751,-122.1061 312.9751,-140.991 312.9751,-140.991"/>
<polygon fill="#000000" stroke="#000000" points="309.4752,-140.9909 312.9751,-150.991 316.4752,-140.991 309.4752,-140.9909"/>
</g>
<!-- RegistrazioneService -->
<g id="node6" class="node">
<title>RegistrazioneService</title>
<ellipse fill="#fdb462" stroke="#000000" cx="117" cy="-104" rx="93.1716" ry="18"/>
<text text-anchor="middle" x="117" y="-99.8" font-family="Times,serif" font-size="14.00" fill="#000000">RegistrazioneService</text>
</g>
<!-- RegistrazioneService&#45;&gt;RegistrazioneModule -->
<g id="edge5" class="edge">
<title>RegistrazioneService&#45;&gt;RegistrazioneModule</title>
<path fill="none" stroke="#000000" d="M117,-122.1061C117,-141.3391 117,-169 117,-169 117,-169 283.7538,-169 283.7538,-169"/>
<polygon fill="#000000" stroke="#000000" points="283.7539,-172.5001 293.7538,-169 283.7538,-165.5001 283.7539,-172.5001"/>
</g>
</g>
</svg>
