<?xml version="1.0" encoding="UTF-8" standalone="no"?>
<!DOCTYPE svg PUBLIC "-//W3C//DTD SVG 1.1//EN"
 "http://www.w3.org/Graphics/SVG/1.1/DTD/svg11.dtd">
<!-- Generated by graphviz version 2.40.1 (20161225.0304)
 -->
<!-- Title: dependencies Pages: 1 -->
<svg width="556pt" height="211pt"
 viewBox="0.00 0.00 556.00 211.00" xmlns="http://www.w3.org/2000/svg" xmlns:xlink="http://www.w3.org/1999/xlink">
<g id="graph0" class="graph" transform="scale(1 1) rotate(0) translate(4 207)">
<title>dependencies</title>
<polygon fill="#ffffff" stroke="transparent" points="-4,4 -4,-207 552,-207 552,4 -4,4"/>
<text text-anchor="start" x="253.0091" y="-42.4" font-family="sans-serif" font-weight="bold" font-size="14.00" fill="#000000">Legend</text>
<polygon fill="#ffffb3" stroke="transparent" points="40,-10 40,-30 60,-30 60,-10 40,-10"/>
<text text-anchor="start" x="63.629" y="-15.4" font-family="sans-serif" font-size="14.00" fill="#000000"> &#160;Declarations</text>
<polygon fill="#8dd3c7" stroke="transparent" points="153,-10 153,-30 173,-30 173,-10 153,-10"/>
<text text-anchor="start" x="176.7251" y="-15.4" font-family="sans-serif" font-size="14.00" fill="#000000"> &#160;Module</text>
<polygon fill="#80b1d3" stroke="transparent" points="239,-10 239,-30 259,-30 259,-10 239,-10"/>
<text text-anchor="start" x="262.7812" y="-15.4" font-family="sans-serif" font-size="14.00" fill="#000000"> &#160;Bootstrap</text>
<polygon fill="#fdb462" stroke="transparent" points="336,-10 336,-30 356,-30 356,-10 336,-10"/>
<text text-anchor="start" x="359.6732" y="-15.4" font-family="sans-serif" font-size="14.00" fill="#000000"> &#160;Providers</text>
<polygon fill="#fb8072" stroke="transparent" points="432,-10 432,-30 452,-30 452,-10 432,-10"/>
<text text-anchor="start" x="455.7258" y="-15.4" font-family="sans-serif" font-size="14.00" fill="#000000"> &#160;Exports</text>
<g id="clust1" class="cluster">
<title>cluster_CoreModule</title>
<polygon fill="none" stroke="#000000" stroke-dasharray="1,5" points="8,-70 8,-195 540,-195 540,-70 8,-70"/>
</g>
<g id="clust6" class="cluster">
<title>cluster_CoreModule_providers</title>
<polygon fill="none" stroke="#000000" points="16,-78 16,-130 532,-130 532,-78 16,-78"/>
</g>
<!-- HttpCommunicationsService -->
<g id="node1" class="node">
<title>HttpCommunicationsService</title>
<ellipse fill="#fdb462" stroke="#000000" cx="401" cy="-104" rx="123.292" ry="18"/>
<text text-anchor="middle" x="401" y="-99.8" font-family="Times,serif" font-size="14.00" fill="#000000">HttpCommunicationsService</text>
</g>
<!-- CoreModule -->
<g id="node3" class="node">
<title>CoreModule</title>
<polygon fill="#8dd3c7" stroke="#000000" points="314.2619,-187 311.2619,-191 290.2619,-191 287.2619,-187 227.7381,-187 227.7381,-151 314.2619,-151 314.2619,-187"/>
<text text-anchor="middle" x="271" y="-164.8" font-family="Times,serif" font-size="14.00" fill="#000000">CoreModule</text>
</g>
<!-- HttpCommunicationsService&#45;&gt;CoreModule -->
<g id="edge1" class="edge">
<title>HttpCommunicationsService&#45;&gt;CoreModule</title>
<path fill="none" stroke="#000000" d="M296.1174,-113.591C296.1174,-113.591 296.1174,-140.748 296.1174,-140.748"/>
<polygon fill="#000000" stroke="#000000" points="292.6175,-140.7479 296.1174,-150.748 299.6175,-140.748 292.6175,-140.7479"/>
</g>
<!-- RegistrazioneServerService -->
<g id="node2" class="node">
<title>RegistrazioneServerService</title>
<ellipse fill="#fdb462" stroke="#000000" cx="142" cy="-104" rx="118.0715" ry="18"/>
<text text-anchor="middle" x="142" y="-99.8" font-family="Times,serif" font-size="14.00" fill="#000000">RegistrazioneServerService</text>
</g>
<!-- RegistrazioneServerService&#45;&gt;CoreModule -->
<g id="edge2" class="edge">
<title>RegistrazioneServerService&#45;&gt;CoreModule</title>
<path fill="none" stroke="#000000" d="M243.9524,-113.3129C243.9524,-113.3129 243.9524,-140.852 243.9524,-140.852"/>
<polygon fill="#000000" stroke="#000000" points="240.4525,-140.852 243.9524,-150.852 247.4525,-140.8521 240.4525,-140.852"/>
</g>
</g>
</svg>
